<svg width="200.000000" height="200.000000" viewBox="0 0 200 200" fill="none" xmlns="http://www.w3.org/2000/svg" xmlns:xlink="http://www.w3.org/1999/xlink">
	<desc>
			Created with Pixso.
	</desc>
	<defs/>
	<rect id="Rectangle" width="100.000000" height="100.000000" transform="matrix(1 0 0 -1 100 100)" fill="#2C6269" fill-opacity="1.000000"/>
	<rect id="Rectangle" width="100.000000" height="100.000000" transform="matrix(1 0 0 -1 100 100)" stroke="#979797" stroke-opacity="0" stroke-width="0.000000"/>
	<mask id="mask_0_4399" fill="white">
		<path id="Combined Shape Copy" d="M100 0C155.229 0 200 44.7715 200 100C200 155.228 155.229 200 100 200C44.7715 200 0 155.228 0 100C0 44.7715 44.7715 0 100 0ZM100 67C118.225 67 133 81.7746 133 100C133 118.225 118.225 133 100 133C81.7747 133 67 118.225 67 100C67 81.7746 81.7747 67 100 67Z" clip-rule="evenodd" fill="" fill-opacity="1.000000" fill-rule="evenodd"/>
	</mask>
	<path id="Combined Shape Copy" d="M100 0C155.229 0 200 44.7715 200 100C200 155.228 155.229 200 100 200C44.7715 200 0 155.228 0 100C0 44.7715 44.7715 0 100 0ZM100 67C118.225 67 133 81.7746 133 100C133 118.225 118.225 133 100 133C81.7747 133 67 118.225 67 100C67 81.7746 81.7747 67 100 67Z" clip-rule="evenodd" fill="#012F34" fill-opacity="1.000000" fill-rule="evenodd" mask="url(#mask_0_4399)"/>
	<path id="Combined Shape Copy" d="" fill="#979797" fill-opacity="0.000000" fill-rule="nonzero"/>
	<mask id="mask_0_4402" fill="white">
		<path id="Combined Shape" d="M100 56L200 56L200 60L100 60L100 56ZM100 64L200 64L200 68L100 68L100 64ZM200 72L100 72L100 76L200 76L200 72ZM100 80L200 80L200 84L100 84L100 80ZM200 88L100 88L100 92L200 92L200 88ZM100 96L200 96L200 100L100 100L100 96Z" clip-rule="evenodd" fill="" fill-opacity="1.000000" fill-rule="evenodd"/>
	</mask>
	<path id="Combined Shape" d="M100 56L200 56L200 60L100 60L100 56ZM100 64L200 64L200 68L100 68L100 64ZM200 72L100 72L100 76L200 76L200 72ZM100 80L200 80L200 84L100 84L100 80ZM200 88L100 88L100 92L200 92L200 88ZM100 96L200 96L200 100L100 100L100 96Z" clip-rule="evenodd" fill="#79C8C7" fill-opacity="1.000000" fill-rule="evenodd" mask="url(#mask_0_4402)"/>
	<path id="Combined Shape" d="" fill="#979797" fill-opacity="0.000000" fill-rule="nonzero"/>
	<mask id="mask_0_4409" fill="white">
		<path id="Combined Shape" d="M200 100L196 100L196 104L200 104L200 100ZM193 100L189 100L189 104L193 104L193 100ZM186 100L182 100L182 104L186 104L186 100ZM179 100L175 100L175 104L179 104L179 100ZM172 100L168 100L168 104L172 104L172 100ZM165 100L161 100L161 104L165 104L165 100ZM158 100L154 100L154 104L158 104L158 100ZM151 100L147 100L147 104L151 104L151 100ZM200 108L196 108L196 112L200 112L200 108ZM193 108L189 108L189 112L193 112L193 108ZM186 108L182 108L182 112L186 112L186 108ZM179 108L175 108L175 112L179 112L179 108ZM172 108L168 108L168 112L172 112L172 108ZM165 108L161 108L161 112L165 112L165 108ZM158 108L154 108L154 112L158 112L158 108ZM151 108L147 108L147 112L151 112L151 108ZM200 116L196 116L196 120L200 120L200 116ZM193 116L189 116L189 120L193 120L193 116ZM186 116L182 116L182 120L186 120L186 116ZM179 116L175 116L175 120L179 120L179 116ZM172 116L168 116L168 120L172 120L172 116ZM165 116L161 116L161 120L165 120L165 116ZM158 116L154 116L154 120L158 120L158 116ZM151 116L147 116L147 120L151 120L151 116ZM200 124L196 124L196 128L200 128L200 124ZM193 124L189 124L189 128L193 128L193 124ZM186 124L182 124L182 128L186 128L186 124ZM179 124L175 124L175 128L179 128L179 124ZM172 124L168 124L168 128L172 128L172 124ZM165 124L161 124L161 128L165 128L165 124ZM158 124L154 124L154 128L158 128L158 124ZM151 124L147 124L147 128L151 128L151 124ZM200 132L196 132L196 136L200 136L200 132ZM193 132L189 132L189 136L193 136L193 132ZM186 132L182 132L182 136L186 136L186 132ZM179 132L175 132L175 136L179 136L179 132ZM172 132L168 132L168 136L172 136L172 132ZM165 132L161 132L161 136L165 136L165 132ZM158 132L154 132L154 136L158 136L158 132ZM151 132L147 132L147 136L151 136L151 132ZM200 140L196 140L196 144L200 144L200 140ZM193 140L189 140L189 144L193 144L193 140ZM186 140L182 140L182 144L186 144L186 140ZM179 140L175 140L175 144L179 144L179 140ZM172 140L168 140L168 144L172 144L172 140ZM165 140L161 140L161 144L165 144L165 140ZM158 140L154 140L154 144L158 144L158 140ZM151 140L147 140L147 144L151 144L151 140Z" clip-rule="evenodd" fill="" fill-opacity="1.000000" fill-rule="evenodd"/>
	</mask>
	<path id="Combined Shape" d="M200 100L196 100L196 104L200 104L200 100ZM193 100L189 100L189 104L193 104L193 100ZM186 100L182 100L182 104L186 104L186 100ZM179 100L175 100L175 104L179 104L179 100ZM172 100L168 100L168 104L172 104L172 100ZM165 100L161 100L161 104L165 104L165 100ZM158 100L154 100L154 104L158 104L158 100ZM151 100L147 100L147 104L151 104L151 100ZM200 108L196 108L196 112L200 112L200 108ZM193 108L189 108L189 112L193 112L193 108ZM186 108L182 108L182 112L186 112L186 108ZM179 108L175 108L175 112L179 112L179 108ZM172 108L168 108L168 112L172 112L172 108ZM165 108L161 108L161 112L165 112L165 108ZM158 108L154 108L154 112L158 112L158 108ZM151 108L147 108L147 112L151 112L151 108ZM200 116L196 116L196 120L200 120L200 116ZM193 116L189 116L189 120L193 120L193 116ZM186 116L182 116L182 120L186 120L186 116ZM179 116L175 116L175 120L179 120L179 116ZM172 116L168 116L168 120L172 120L172 116ZM165 116L161 116L161 120L165 120L165 116ZM158 116L154 116L154 120L158 120L158 116ZM151 116L147 116L147 120L151 120L151 116ZM200 124L196 124L196 128L200 128L200 124ZM193 124L189 124L189 128L193 128L193 124ZM186 124L182 124L182 128L186 128L186 124ZM179 124L175 124L175 128L179 128L179 124ZM172 124L168 124L168 128L172 128L172 124ZM165 124L161 124L161 128L165 128L165 124ZM158 124L154 124L154 128L158 128L158 124ZM151 124L147 124L147 128L151 128L151 124ZM200 132L196 132L196 136L200 136L200 132ZM193 132L189 132L189 136L193 136L193 132ZM186 132L182 132L182 136L186 136L186 132ZM179 132L175 132L175 136L179 136L179 132ZM172 132L168 132L168 136L172 136L172 132ZM165 132L161 132L161 136L165 136L165 132ZM158 132L154 132L154 136L158 136L158 132ZM151 132L147 132L147 136L151 136L151 132ZM200 140L196 140L196 144L200 144L200 140ZM193 140L189 140L189 144L193 144L193 140ZM186 140L182 140L182 144L186 144L186 140ZM179 140L175 140L175 144L179 144L179 140ZM172 140L168 140L168 144L172 144L172 140ZM165 140L161 140L161 144L165 144L165 140ZM158 140L154 140L154 144L158 144L158 140ZM151 140L147 140L147 144L151 144L151 140Z" clip-rule="evenodd" fill="#F67E7E" fill-opacity="1.000000" fill-rule="evenodd" mask="url(#mask_0_4409)"/>
	<path id="Combined Shape" d="" fill="#979797" fill-opacity="0.000000" fill-rule="nonzero"/>
</svg>
