<svg width="26.697754" height="19.508057" viewBox="0 0 26.6978 19.5081" fill="none" xmlns="http://www.w3.org/2000/svg" xmlns:xlink="http://www.w3.org/1999/xlink">
	<desc>
			Created with Pixso.
	</desc>
	<defs/>
	<path id="Path" d="M26.69 2.3C25.71 2.7 24.65 2.96 23.55 3.08C24.68 2.47 25.55 1.51 25.96 0.36C24.9 0.92 23.73 1.33 22.48 1.55C21.48 0.59 20.05 0 18.48 0C14.94 0 12.34 2.96 13.14 6.04C8.59 5.84 4.56 3.88 1.85 0.9C0.42 3.11 1.11 6.01 3.55 7.47C2.65 7.45 1.81 7.22 1.07 6.86C1.01 9.14 2.83 11.27 5.46 11.75C4.69 11.93 3.85 11.98 2.99 11.83C3.68 13.79 5.71 15.21 8.1 15.25C5.8 16.87 2.9 17.6 0 17.29C18.48 17.72 16.19 11.54 22.48 11.54L8.39 19.5C18.48 16.57 24.31 11.78 23.96 4.85C25.03 4.16 25.96 3.29 26.69 2.3Z" fill="#FFFFFF" fill-opacity="1.000000" fill-rule="nonzero"/>
</svg>
