<svg width="24.194580" height="24.489807" viewBox="0 0 24.1946 24.4898" fill="none" xmlns="http://www.w3.org/2000/svg" xmlns:xlink="http://www.w3.org/1999/xlink">
	<desc>
			Created with Pixso.
	</desc>
	<defs/>
	<path id="Path" d="M12.09 0C5.41 0 0 5.48 0 12.24C0 17.43 3.18 21.86 7.68 23.64C7.58 22.67 7.48 21.19 7.73 20.13C7.95 19.17 9.14 14.04 9.14 14.04C9.14 14.04 8.78 13.31 8.78 12.23C8.78 10.52 9.76 9.25 10.97 9.25C12 9.25 12.5 10.04 12.5 10.98C12.5 12.03 11.84 13.6 11.5 15.05C11.21 16.27 12.1 17.27 13.29 17.27C15.44 17.27 17.09 14.97 17.09 11.66C17.09 8.73 15.01 6.68 12.04 6.68C8.6 6.68 6.58 9.29 6.58 11.99C6.58 13.04 6.98 14.17 7.48 14.78C7.58 14.91 7.59 15.01 7.56 15.14L7.23 16.52C7.17 16.75 7.05 16.8 6.82 16.69C5.31 15.98 4.37 13.74 4.37 11.95C4.37 8.08 7.14 4.53 12.36 4.53C16.56 4.53 19.82 7.56 19.82 11.61C19.82 15.83 17.19 19.22 13.54 19.22C12.31 19.22 11.16 18.58 10.77 17.82L10.01 20.73C9.74 21.79 9 23.13 8.51 23.94C9.64 24.29 10.85 24.48 12.09 24.48C18.77 24.48 24.19 19 24.19 12.24C24.19 5.48 18.77 0 12.09 0Z" fill="#FFFFFF" fill-opacity="1.000000" fill-rule="nonzero"/>
</svg>
